<svg xmlns="http://www.w3.org/2000/svg" xmlns:xlink="http://www.w3.org/1999/xlink" width="1920" zoomAndPan="magnify" viewBox="0 0 1440 809.999993" height="1080" preserveAspectRatio="xMidYMid meet" version="1.0"><defs><g/><clipPath id="71e6c2cf6d"><rect x="0" width="1435" y="0" height="512"/></clipPath></defs><g transform="matrix(1, 0, 0, 1, 0, 149)"><g clip-path="url(#71e6c2cf6d)"><g fill="#6c8578" fill-opacity="1"><g transform="translate(-9.250775, 417.559961)"><g><path d="M 18.578125 -195.078125 C 18.578125 -237.804688 30.648438 -271.164062 54.796875 -295.15625 C 78.953125 -319.15625 112.550781 -331.15625 155.59375 -331.15625 C 198.007812 -331.15625 231.0625 -319.15625 254.75 -295.15625 C 278.4375 -271.164062 290.28125 -237.804688 290.28125 -195.078125 L 290.28125 0 L 240.59375 0 L 240.59375 -86.859375 L 68.28125 -86.859375 L 68.28125 0 L 18.578125 0 Z M 68.28125 -126.328125 L 240.59375 -126.328125 L 240.59375 -195.078125 C 240.59375 -223.554688 233.082031 -245.691406 218.0625 -261.484375 C 203.039062 -277.273438 182.21875 -285.171875 155.59375 -285.171875 C 128.34375 -285.171875 106.976562 -277.273438 91.5 -261.484375 C 76.019531 -245.691406 68.28125 -223.554688 68.28125 -195.078125 Z M 68.28125 -126.328125 "/></g></g></g><g fill="#6c8578" fill-opacity="1"><g transform="translate(267.096675, 417.559961)"><g><path d="M 18.578125 0 L 18.578125 -325.125 L 179.28125 -325.125 C 212.101562 -325.125 237.644531 -314.828125 255.90625 -294.234375 C 274.175781 -273.640625 283.3125 -244.921875 283.3125 -208.078125 C 283.3125 -180.210938 277.195312 -156.367188 264.96875 -136.546875 C 252.738281 -116.734375 234.703125 -103.882812 210.859375 -98 L 283.3125 0 L 230.828125 0 L 163.484375 -91.96875 L 68.28125 -91.96875 L 68.28125 0 Z M 68.28125 -129.578125 L 164.875 -129.578125 C 186.238281 -129.578125 202.957031 -136.546875 215.03125 -150.484375 C 227.113281 -164.421875 233.15625 -183.617188 233.15625 -208.078125 C 233.15625 -233.160156 227.113281 -252.664062 215.03125 -266.59375 C 202.957031 -280.53125 186.238281 -287.5 164.875 -287.5 L 68.28125 -287.5 Z M 68.28125 -129.578125 "/></g></g></g><g fill="#6c8578" fill-opacity="1"><g transform="translate(536.47744, 417.559961)"><g><path d="M 289.359375 -325.125 L 289.359375 -285.640625 L 178.8125 -285.640625 L 178.8125 0 L 129.125 0 L 129.125 -285.640625 L 18.578125 -285.640625 L 18.578125 -325.125 Z M 289.359375 -325.125 "/></g></g></g><g fill="#6c8578" fill-opacity="1"><g transform="translate(811.896048, 417.559961)"><g><path d="M 18.578125 -325.125 L 68.28125 -325.125 L 68.28125 0 L 18.578125 0 Z M 18.578125 -325.125 "/></g></g></g><g fill="#6c8578" fill-opacity="1"><g transform="translate(866.236522, 417.559961)"><g><path d="M 18.578125 0 L 212.25 -285.640625 L 23.21875 -285.640625 L 23.21875 -325.125 L 290.75 -325.125 L 97.53125 -39.484375 L 290.75 -39.484375 L 290.75 0 Z M 18.578125 0 "/></g></g></g><g fill="#6c8578" fill-opacity="1"><g transform="translate(1143.048466, 417.559961)"><g><path d="M 18.578125 -195.078125 C 18.578125 -237.804688 30.648438 -271.164062 54.796875 -295.15625 C 78.953125 -319.15625 112.550781 -331.15625 155.59375 -331.15625 C 198.007812 -331.15625 231.0625 -319.15625 254.75 -295.15625 C 278.4375 -271.164062 290.28125 -237.804688 290.28125 -195.078125 L 290.28125 0 L 240.59375 0 L 240.59375 -86.859375 L 68.28125 -86.859375 L 68.28125 0 L 18.578125 0 Z M 68.28125 -126.328125 L 240.59375 -126.328125 L 240.59375 -195.078125 C 240.59375 -223.554688 233.082031 -245.691406 218.0625 -261.484375 C 203.039062 -277.273438 182.21875 -285.171875 155.59375 -285.171875 C 128.34375 -285.171875 106.976562 -277.273438 91.5 -261.484375 C 76.019531 -245.691406 68.28125 -223.554688 68.28125 -195.078125 Z M 68.28125 -126.328125 "/></g></g></g></g></g></svg>